<svg width="78.000000" height="79.000000" viewBox="0 0 78 79" fill="none" xmlns="http://www.w3.org/2000/svg" xmlns:xlink="http://www.w3.org/1999/xlink">
	<desc>
			Created with Pixso.
	</desc>
	<defs>
		<clipPath id="clip3512_3408">
			<rect id="Bold Duotone / Video, Audio, Sound / Soundwave" width="78.166664" height="78.166664" transform="translate(-0.166016 0.000000)" fill="white" fill-opacity="0"/>
		</clipPath>
	</defs>
	<g clip-path="url(#clip3512_3408)">
		<path id="Vector" d="M38.91 10.58C40.26 10.58 41.35 11.67 41.35 13.02L41.35 65.13C41.35 66.48 40.26 67.58 38.91 67.58C37.56 67.58 36.47 66.48 36.47 65.13L36.47 13.02C36.47 11.67 37.56 10.58 38.91 10.58ZM12.86 33.38C14.2 33.38 15.3 34.47 15.3 35.82L15.3 42.33C15.3 43.68 14.2 44.78 12.86 44.78C11.51 44.78 10.41 43.68 10.41 42.33L10.41 35.82C10.41 34.47 11.51 33.38 12.86 33.38ZM64.97 33.38C66.32 33.38 67.41 34.47 67.41 35.82L67.41 42.33C67.41 43.68 66.32 44.78 64.97 44.78C63.62 44.78 62.52 43.68 62.52 42.33L62.52 35.82C62.52 34.47 63.62 33.38 64.97 33.38Z" fill="#579BB1" fill-opacity="1.000000" fill-rule="evenodd"/>
		<g opacity="0.500000">
			<path id="Vector" d="M25.88 20.35C27.23 20.35 28.33 21.44 28.33 22.79L28.33 55.36C28.33 56.71 27.23 57.81 25.88 57.81C24.53 57.81 23.44 56.71 23.44 55.36L23.44 22.79C23.44 21.44 24.53 20.35 25.88 20.35ZM51.94 20.35C53.29 20.35 54.38 21.44 54.38 22.79L54.38 55.36C54.38 56.71 53.29 57.81 51.94 57.81C50.59 57.81 49.5 56.71 49.5 55.36L49.5 22.79C49.5 21.44 50.59 20.35 51.94 20.35Z" fill="#579BB1" fill-opacity="1.000000" fill-rule="evenodd"/>
		</g>
	</g>
</svg>
