<svg width="217.000000" height="31.000000" viewBox="0 0 217 31" fill="none" xmlns="http://www.w3.org/2000/svg" xmlns:xlink="http://www.w3.org/1999/xlink">
	<desc>
			Created with Pixso.
	</desc>
	<defs/>
	<path id="СВ - ФАРМ" d="M92.93 14.94C92.93 7.59 98.14 2.91 105.26 2.91L105.51 2.91L105.51 -0.6L112.11 -0.6L112.11 2.91L112.4 2.91C119.56 2.91 124.67 7.62 124.67 14.99C124.67 22.03 119.56 26.56 112.4 26.56L112.11 26.56L112.11 30.19L105.51 30.19L105.51 26.56L105.26 26.56C98.05 26.56 92.93 22.09 92.93 14.94ZM13.68 -0.5C20.71 -0.5 25.9 3.49 26.6 10.44L19.5 10.44C19.15 7.53 17.06 5.67 13.86 5.67C9.62 5.67 7.06 8.9 7.06 14.45C7.06 20.24 9.67 23.22 13.82 23.22C16.9 23.22 19 21.56 19.5 18.77L26.6 18.81C26.08 23.97 21.66 29.4 13.68 29.4C5.78 29.4 -0.12 24.02 -0.12 14.45C-0.12 4.83 5.92 -0.5 13.68 -0.5ZM43.66 29L30.6 29L30.6 -0.1L42.74 -0.1C49.28 -0.1 52.66 2.87 52.66 7.27C52.66 10.59 50.41 12.9 47.22 13.57L47.22 13.85C50.74 14 53.79 16.65 53.79 20.86C53.79 25.56 50.1 29 43.66 29ZM135.24 22.89L133.32 29L125.77 29L135.58 -0.1L144.95 -0.1L154.76 29L147.2 29L145.29 22.89L135.24 22.89ZM164.92 29L157.89 29L157.89 -0.1L169.91 -0.1C176.45 -0.1 180.53 4 180.53 9.97C180.53 16.02 176.36 19.96 169.7 19.96L164.92 19.96L164.92 29ZM183.97 29L183.97 -0.1L192.68 -0.1L200.06 17.91L200.41 17.91L207.8 -0.1L216.5 -0.1L216.5 29L209.65 29L209.65 11.12L209.42 11.12L202.43 28.81L198.05 28.81L191.06 11.03L190.83 11.03L190.83 29L183.97 29ZM37.64 5.49L37.64 11.87L41.53 11.87C43.84 11.87 45.48 10.67 45.48 8.62C45.48 6.69 43.99 5.49 41.65 5.49L37.64 5.49ZM164.92 5.57L164.92 14.42L168.39 14.42C171.54 14.42 173.23 12.66 173.23 9.97C173.23 7.28 171.54 5.57 168.39 5.57L164.92 5.57ZM140.14 7.24L136.92 17.55L143.61 17.55L140.37 7.24L140.14 7.24ZM105.51 8.72L105.26 8.72C101.9 8.72 99.37 10.62 99.37 14.94C99.37 19 101.99 20.75 105.26 20.75L105.51 20.75L105.51 8.72ZM112.45 8.72L112.11 8.72L112.11 20.75L112.45 20.75C115.75 20.75 118.2 18.91 118.2 14.99C118.2 10.66 115.75 8.72 112.45 8.72ZM66.27 11.77L79.74 11.77L79.74 17.12L66.27 17.12L66.27 11.77ZM37.64 16.4L37.64 23.33L41.99 23.33C45.03 23.33 46.44 22.11 46.44 20.05C46.44 17.81 44.8 16.4 42.12 16.4L37.64 16.4Z" fill="#F5F5F5" fill-opacity="1.000000" fill-rule="evenodd"/>
</svg>
