<svg width="67" height="63" viewBox="0 0 67 63" fill="none" xmlns="http://www.w3.org/2000/svg">
<path d="M36.2554 0.435547H32.334V62.7271H36.2554V0.435547Z" fill="#579BB1"/>
<path d="M13.9826 10.8431C16.8441 10.8431 19.1643 8.51304 19.1643 5.63818C19.1643 2.76451 16.8442 0.435547 13.9826 0.435547C11.1187 0.435547 8.80078 2.76451 8.80078 5.63818C8.80078 8.51304 11.1187 10.8431 13.9826 10.8431Z" fill="#579BB1"/>
<path d="M24.0833 18.2665C23.0331 14.7055 20.6807 12.3457 18.0319 12.3457C16.0698 12.3457 13.9818 12.3457 13.9818 12.3457C13.9818 12.3457 11.8938 12.3457 9.93182 12.3457C7.28284 12.3457 4.92802 14.7057 3.87774 18.2665L0.0625398 31.8615C-0.2192 33.0068 0.477626 34.1755 1.61676 34.456C2.75837 34.7389 3.89999 34.0688 4.1816 32.9236L7.98464 19.3707H9.10649L2.48893 42.9454H8.72831V60.4327C8.72831 61.7691 9.80816 62.8522 11.1376 62.8522C12.4694 62.8522 13.5492 61.7691 13.5492 60.4327V42.9454H14.8762V60.4327C14.8762 61.7691 15.9561 62.8522 17.288 62.8522C18.6174 62.8522 19.6972 61.7691 19.6972 60.4327V42.9454H25.472L18.8546 19.3708H19.9765L23.7794 32.9238C24.061 34.0689 25.2051 34.739 26.3442 34.4561C27.4858 34.1756 28.1802 33.0068 27.8984 31.8617L24.0833 18.2665Z" fill="url(#paint0_linear_5505_1406)"/>
<path d="M55.3771 10.8431C58.2411 10.8431 60.5589 8.51304 60.5589 5.63818C60.5589 2.76451 58.2411 0.435547 55.3771 0.435547C52.5157 0.435547 50.1953 2.76451 50.1953 5.63818C50.1954 8.51304 52.5157 10.8431 55.3771 10.8431Z" fill="#579BB1"/>
<path d="M61.7574 12.3125H48.142C45.6316 12.3125 42.8984 15.057 42.8984 17.5783V35.0695C42.8984 36.3301 43.9165 37.3525 45.1719 37.3525C46.4271 37.3525 47.4451 36.3301 47.4451 35.0695V20.689H48.4928V59.7284C48.4928 61.3848 49.8295 62.7273 51.4802 62.7273C53.1309 62.7273 54.4676 61.3848 54.4676 59.7284V37.072H55.4314V59.7284C55.4314 61.3848 56.7681 62.7273 58.4188 62.7273C60.0669 62.7273 61.4063 61.3848 61.4063 59.7284V20.689H62.4539V35.0693C62.4539 36.33 63.472 37.3524 64.7272 37.3524C65.9826 37.3524 67.0006 36.33 67.0006 35.0693V17.5782C67.0009 15.057 64.2679 12.3125 61.7574 12.3125Z" fill="url(#paint1_linear_5505_1406)"/>
<defs>
<linearGradient id="paint0_linear_5505_1406" x1="13.9806" y1="12.3457" x2="13.9806" y2="62.8522" gradientUnits="userSpaceOnUse">
<stop stop-color="#1687A7"/>
<stop offset="1" stop-color="#2E9DC0"/>
</linearGradient>
<linearGradient id="paint1_linear_5505_1406" x1="54.9495" y1="12.3125" x2="54.9495" y2="62.7273" gradientUnits="userSpaceOnUse">
<stop stop-color="#1687A7"/>
<stop offset="1" stop-color="#2E9DC0"/>
</linearGradient>
</defs>
</svg>
