<svg width="67" height="67" viewBox="0 0 67 67" fill="none" xmlns="http://www.w3.org/2000/svg">
<path opacity="0.4" d="M50.2513 8.375C56.4185 8.375 61.418 13.3745 61.418 19.5417L61.418 47.4583C61.418 53.6255 56.4185 58.625 50.2513 58.625L16.7513 58.625C10.5841 58.625 5.58464 53.6255 5.58464 47.4583L5.58464 19.5417C5.58464 13.3745 10.5841 8.375 16.7513 8.375L50.2513 8.375Z" fill="#579BB1"/>
<ellipse cx="16.7507" cy="47.4577" rx="2.79167" ry="2.79167" fill="#579BB1"/>
<path d="M5.58464 19.541L61.418 19.541L61.418 30.7077L5.58464 30.7077L5.58464 19.541Z" fill="#579BB1"/>
<path fill-rule="evenodd" clip-rule="evenodd" d="M62.7968 45.8833C63.667 46.6448 63.7552 47.9675 62.9938 48.8378L54.9819 57.9941C53.2603 59.9617 50.2949 60.2251 48.2534 58.5919L43.3601 54.6773C42.4571 53.9549 42.3107 52.6373 43.0331 51.7344C43.7555 50.8314 45.073 50.685 45.976 51.4074L50.8693 55.322C51.1609 55.5554 51.5846 55.5177 51.8305 55.2366L59.8423 46.0803C60.6038 45.21 61.9266 45.1218 62.7968 45.8833Z" fill="#579BB1"/>
</svg>
